<svg xmlns="http://www.w3.org/2000/svg" viewBox="0 0 3328 3328" shape-rendering="geometricPrecision" text-rendering="geometricPrecision" image-rendering="optimizeQuality" fill-rule="evenodd" clip-rule="evenodd"><path d="M1664 0c460 0 876 186 1177 487s487 717 487 1177-186 876-487 1177-717 487-1177 487-876-186-1177-487S0 2124 0 1664 186 788 487 487 1204 0 1664 0zm507 1012c35-35 92-35 128 0 35 35 35 92 0 128l-524 524 524 524c35 35 35 92 0 128-35 35-92 35-128 0l-524-524-524 524c-35 35-92 35-128 0-35-35-35-92 0-128l524-524-524-524c-35-35-35-92 0-128 35-35 92-35 128 0l524 524 524-524zm542-397c-268-268-639-435-1049-435S883 346 615 615c-268 268-435 639-435 1049s166 781 435 1049c268 268 639 435 1049 435s781-166 1049-435c268-268 435-639 435-1049s-166-781-435-1049z" fill-rule="nonzero"/></svg>