<svg xmlns="http://www.w3.org/2000/svg" viewBox="0 0 3333 2890" shape-rendering="geometricPrecision" text-rendering="geometricPrecision" image-rendering="optimizeQuality" fill-rule="evenodd" clip-rule="evenodd"><path d="M2162 2855c-33 29-83 26-112-6-29-33-26-83 6-112l1070-955c15-14 27-28 35-44s12-33 13-53-1-38-7-55c-6-16-16-32-29-48l-1-1L1923 260c-30-32-28-82 5-112 32-30 82-28 112 5l1214 1321 3 3c27 31 47 64 60 101s18 75 16 116-12 78-29 113-41 66-72 93l-1069 955zM1475 85h20c21 0 43 9 58 26l1214 1321 3 3c27 31 47 64 60 101s18 75 16 116-12 78-29 113-41 66-72 93l-1066 952-2 2c-30 28-64 49-100 61-36 13-75 18-117 16s-80-12-114-29c-35-17-66-41-94-72L110 1508c-14-15-21-36-20-58l2-32L-1 85V75C2 31 39-2 83 1l1366 87c2 0 3-1 5-1 8-1 15-2 20-2zm-13 161c-5 1-11 0-16 0L164 164l87 1249v15l1119 1255c14 15 28 27 45 35 16 8 34 13 54 14s38-1 55-7c16-6 31-15 45-28 2-1 3-3 5-4l1066-952c15-14 27-28 35-44s12-33 13-53-1-38-7-55c-6-16-16-32-29-48l-1-2L1463 246zm-804 86c40 1 77 9 111 24s65 37 92 65 48 60 62 95 21 73 21 112c0 3 0 7-1 10-2 37-10 71-24 102-15 34-37 65-66 92l-5 5c-28 25-58 44-91 57-34 13-71 20-109 19-40 0-77-8-112-23-34-15-66-37-94-66s-49-61-62-96c-14-35-20-72-19-112 1-41 9-78 24-112 15-35 38-66 67-94 29-27 61-47 96-61 35-13 72-20 112-19zm47 169c-15-7-32-11-50-11s-35 2-51 8c-15 6-30 16-44 29s-24 27-30 42c-7 16-11 33-11 52 0 18 2 35 8 51 6 15 16 30 29 44 13 13 27 24 43 30 15 6 31 10 49 10h2c19 1 36-2 51-8 14-6 28-14 41-26l3-3c14-13 24-27 31-43 6-14 10-28 11-44v-3c0-20-3-38-9-54s-16-30-29-44c-13-13-27-23-42-30zm717 350c-30-32-28-82 5-112 32-30 82-28 112 5l676 734c30 32 28 82-5 112-32 30-82 28-112-5l-676-734zm-324 307c-30-32-28-82 5-112 32-30 82-28 112 5l676 734c30 32 28 82-5 112-32 30-82 28-112-5l-676-734zm-337 307c-30-32-28-82 5-112 32-30 82-28 112 5l676 734c30 32 28 82-5 112-32 30-82 28-112-5l-676-734z" fill-rule="nonzero"/></svg>