<svg xmlns="http://www.w3.org/2000/svg" viewBox="0 0 3067 3333" shape-rendering="geometricPrecision" text-rendering="geometricPrecision" image-rendering="optimizeQuality" fill-rule="evenodd" clip-rule="evenodd"><path d="M1441 67c0-37 41-67 93-67 51 0 93 30 93 67v1204c0 37-41 67-93 67-51 0-93-30-93-67V67zm556 467c-48-18-73-71-55-119s71-73 119-55c297 109 552 308 730 563 174 249 276 551 276 877 0 423-172 807-449 1084-278 278-661 449-1084 449s-807-172-1084-449C172 2606 1 2223 1 1800c0-326 102-628 276-877 179-256 433-454 730-563 48-18 101 7 119 55s-7 101-55 119c-262 96-486 271-643 495-152 218-242 484-242 771 0 372 151 709 395 953s581 395 953 395 709-151 953-395 395-581 395-953c0-287-89-553-242-771-157-225-381-399-643-495z" fill-rule="nonzero"/></svg>