<svg xmlns="http://www.w3.org/2000/svg" width="64" height="64" viewBox="0 0 640 640" shape-rendering="geometricPrecision" text-rendering="geometricPrecision" image-rendering="optimizeQuality" fill-rule="evenodd" clip-rule="evenodd"><path d="M110.919-.567H529.07C590.075-.567 640 50.08 640 111.97v416.06c0 61.902-49.926 112.55-110.93 112.55H110.919C49.914 640.58 0 589.932 0 528.03V111.97C0 50.08 49.914-.567 110.919-.567zm2.161 58.123h413.816c30.556 0 55.56 24.98 55.56 55.524v413.828c0 30.544-25.004 55.536-55.56 55.536H113.08c-30.543 0-55.547-24.992-55.547-55.536V113.08c0-30.544 25.004-55.524 55.547-55.524z"/></svg>